<svg width="318" height="160" viewBox="0 0 318 160" fill="none" xmlns="http://www.w3.org/2000/svg">
<path d="M15 80C15 44.1015 44.1015 15 80 15H230C265.899 15 295 44.1015 295 80V80C295 115.899 265.899 145 230 145H80C44.1015 145 15 115.899 15 80V80Z" fill="#33ACC9"/>
<path d="M208.172 108.079L218.652 51.1991L243.932 49.0391C243.559 50.2124 243.239 51.4124 242.972 52.6391C242.705 53.6524 242.439 54.7191 242.172 55.8391C241.959 56.9057 241.772 57.8657 241.612 58.7191C240.919 58.7724 239.932 58.8257 238.652 58.8791C237.372 58.8791 236.065 58.9057 234.732 58.9591C233.399 58.9591 232.252 58.9591 231.292 58.9591C230.332 58.9591 229.825 58.9591 229.772 58.9591L226.972 73.2791L231.612 73.0391C232.199 72.9857 232.785 72.9591 233.372 72.9591C234.012 72.9591 234.625 72.9591 235.212 72.9591C235.799 72.9591 236.332 72.9591 236.812 72.9591C237.292 72.9591 237.665 72.9324 237.932 72.8791C237.825 73.6257 237.719 74.3724 237.612 75.1191C237.559 75.8124 237.479 76.5324 237.372 77.2791L236.652 81.6791C236.385 81.7324 236.039 81.7591 235.612 81.7591C235.185 81.7591 234.679 81.7591 234.092 81.7591C233.505 81.8124 232.892 81.8391 232.252 81.8391C231.612 81.8391 230.999 81.8657 230.412 81.9191C229.719 81.9724 228.999 81.9991 228.252 81.9991C227.505 81.9991 226.705 82.0257 225.852 82.0791L223.132 96.7991L234.812 94.9591L234.012 104.079L208.172 108.079Z" fill="white"/>
<path d="M170.305 108.08L174.465 87.2795C175.105 83.4395 175.798 79.4929 176.545 75.4395C177.291 71.3862 177.985 67.3862 178.625 63.4395C179.318 59.4929 179.851 55.7862 180.225 52.3195C183.265 51.3595 186.545 50.6662 190.065 50.2395C193.585 49.7595 197.078 49.5195 200.545 49.5195C204.598 49.5195 207.345 50.3995 208.785 52.1595C210.278 53.9195 211.025 56.2929 211.025 59.2795C211.025 61.9995 210.385 64.7462 209.105 67.5195C207.825 70.2395 206.145 72.7195 204.065 74.9595C202.038 77.1462 199.798 78.8795 197.345 80.1595C198.305 82.2929 199.318 84.6395 200.385 87.1995C201.505 89.7062 202.545 92.1062 203.505 94.3995C204.038 95.7329 204.571 97.0662 205.105 98.3995C205.691 99.7329 206.251 101.066 206.785 102.4L194.385 106.72L191.505 97.1195C190.705 94.4529 189.958 91.8929 189.265 89.4395C188.625 86.9329 188.251 85.1729 188.145 84.1595L187.105 84.4795C186.945 85.3329 186.758 86.2662 186.545 87.2795C186.385 88.2395 186.198 89.3062 185.985 90.4795C185.771 91.6529 185.558 92.7995 185.345 93.9195C185.131 94.9862 184.918 96.0529 184.705 97.1195L183.265 104.72L170.305 108.08ZM189.105 73.3595C190.065 73.2529 191.238 72.8529 192.625 72.1595C194.065 71.4129 195.478 70.5062 196.865 69.4395C198.305 68.3729 199.505 67.2795 200.465 66.1595C201.425 65.0395 201.905 64.0529 201.905 63.1995C201.905 62.1329 201.265 61.4395 199.985 61.1195C198.758 60.7462 197.131 60.5595 195.105 60.5595H193.345C193.025 60.6129 192.731 60.6395 192.465 60.6395C192.198 60.6395 191.931 60.6395 191.665 60.6395L189.105 73.3595Z" fill="white"/>
<path d="M141.012 108.32C137.492 108.32 134.612 106.96 132.372 104.24C130.132 101.52 129.012 97.4135 129.012 91.9202C129.012 88.8802 129.385 85.6802 130.132 82.3202C130.878 78.9602 131.918 75.6535 133.252 72.4002C134.585 69.1468 136.132 66.1335 137.892 63.3602C140.718 58.8802 143.972 55.2268 147.652 52.4002C151.332 49.5735 155.198 48.1602 159.252 48.1602C162.452 48.1602 164.905 48.9868 166.612 50.6402C168.372 52.2402 169.598 54.3202 170.292 56.8802C170.985 59.3868 171.332 62.0002 171.332 64.7202C171.332 71.0668 170.345 76.9868 168.372 82.4802C166.452 87.9202 163.945 92.5335 160.852 96.3202C157.758 100.213 154.452 103.2 150.932 105.28C147.465 107.307 144.158 108.32 141.012 108.32ZM145.332 95.1202C147.732 95.1202 149.838 94.3202 151.652 92.7202C153.518 91.1202 155.092 89.0935 156.372 86.6402C157.652 84.1335 158.612 81.5202 159.252 78.8002C159.892 76.0802 160.212 73.6268 160.212 71.4402C160.212 70.5868 160.132 69.6802 159.972 68.7202C159.812 67.7068 159.465 66.8268 158.932 66.0802C158.398 65.3335 157.572 64.9602 156.452 64.9602C153.998 64.9602 151.785 65.8668 149.812 67.6802C147.838 69.4402 146.185 71.6802 144.852 74.4002C143.518 77.1735 142.532 79.8935 141.892 82.5602C141.252 85.2268 140.932 87.6535 140.932 89.8402C140.932 90.9602 141.332 92.1335 142.132 93.3602C142.932 94.5335 143.998 95.1202 145.332 95.1202Z" fill="white"/>
<path d="M72.6016 107.52C74.9482 100.373 77.1882 93.4129 79.3216 86.6396C80.2282 83.8663 81.1616 80.9063 82.1216 77.7596C83.0816 74.6129 84.0416 71.4663 85.0016 68.3196C85.9616 65.1196 86.8682 62.0529 87.7216 59.1196C88.5749 56.1863 89.2949 53.5729 89.8816 51.2796C92.8149 51.2796 95.5882 51.1196 98.2016 50.7996C99.5349 50.6396 100.895 50.4796 102.282 50.3196C103.722 50.1596 105.188 50.0263 106.682 49.9196L106.202 53.8396C106.095 54.5863 105.988 55.3596 105.882 56.1596C105.775 56.9063 105.668 57.6796 105.562 58.4796C105.455 59.2796 105.322 60.1063 105.162 60.9596C105.002 61.7596 104.868 62.5863 104.762 63.4396C104.548 65.0929 104.228 67.4129 103.802 70.3996C103.375 73.3329 102.868 76.5329 102.282 79.9996H103.322C104.868 75.9463 106.148 72.5863 107.162 69.9196C108.175 67.1996 109.002 64.9863 109.642 63.2796C110.548 60.7729 111.535 58.2396 112.602 55.6796C113.668 53.1196 114.548 51.1463 115.242 49.7596C116.522 49.6529 118.042 49.4929 119.802 49.2796C121.615 49.0129 123.428 48.7196 125.242 48.3996C127.108 48.0796 128.708 47.8129 130.042 47.5996C129.295 52.0796 128.602 56.6129 127.962 61.1996C127.375 65.7329 126.842 70.0796 126.362 74.2396C125.935 78.3463 125.562 82.0529 125.242 85.3596C124.922 88.6663 124.628 91.9463 124.362 95.1996C124.095 98.3996 123.828 101.573 123.562 104.72L109.642 107.2C109.642 107.093 109.722 105.893 109.882 103.6C110.042 101.306 110.308 98.4529 110.682 95.0396C111.055 91.6263 111.428 88.3996 111.802 85.3596C112.175 82.2663 112.548 79.7329 112.922 77.7596H112.202C110.868 81.8129 109.242 86.2396 107.322 91.0396C105.455 95.8396 103.615 101.146 101.802 106.96C99.9349 107.013 98.3349 107.093 97.0016 107.2C95.6682 107.253 94.1216 107.333 92.3616 107.44L94.9216 77.7596H93.7216C93.6682 78.3463 93.4282 79.4929 93.0016 81.1996C92.5749 82.8529 92.0682 84.7729 91.4816 86.9596C90.8949 89.0929 90.2816 91.2263 89.6416 93.3596C87.2416 101.733 85.9616 106.16 85.8016 106.64L72.6016 107.52Z" fill="white"/>
</svg>
